<svg xmlns="http://www.w3.org/2000/svg" viewBox="0 -960 877 1024" fill="currentColor">
  <path d="M363-960L363-960L363-959L363-960ZM363-613L363-613L363-612L363-613ZM439-796L439-796Q438-796 437-796Q436-796 435-796L435-796Q345-796 267-762L267-762Q188-728 129-670Q70-612 36-533L36-533Q1-455 0-366L0-366L0-366Q1-277 36-198L36-198Q70-120 129-61.50Q188-3 267 30L267 30Q345 64 435 64L435 64Q436 64 437 64Q438 64 439 64L439 64L439 64Q439 64 440.50 64Q442 64 443 64L443 64Q532 64 611 30L611 30Q689-3 748-61.50Q807-120 842-198L842-198Q876-276 877-366L877-366L877-366Q876-455 842-533L842-533Q807-612 748-670Q689-728 611-762L611-762Q532-796 443-796L443-796Q442-796 440.50-796Q439-796 438-796L438-796L439-796ZM839-366L839-366Q839-360 839-354.50Q839-349 838-343L838-343Q836-349 833.50-355Q831-361 830-363L830-363Q829-368 824-379Q819-390 819-390L819-390Q816-394 812.50-398Q809-402 805-405L805-405L804-405Q800-407 795.50-412Q791-417 783-421L783-421Q778-425 772-427.50Q766-430 759-430L759-430L759-430Q752-430 745-436.50Q738-443 730-448L730-448Q722-452 720-451.50Q718-451 718-451L718-451Q722-446 725-440.50Q728-435 730-429L730-429L730-429Q730-425 738.50-421.50Q747-418 758-420L758-420Q761-414 764.50-408.50Q768-403 771-399L771-399L771-399Q775-396 771-392.50Q767-389 761-384L761-384Q757-382 754-380Q751-378 748-375L748-375L748-375Q743-371 737.50-367.50Q732-364 725-361L725-361L724-360Q721-358 710-354.50Q699-351 693-357L693-357Q689-361 689-366.50Q689-372 687-377L687-377Q684-381 666-407.50Q648-434 637-449L637-449Q634-454 630.50-458.50Q627-463 623-467L623-467L623-467Q620-469 627-469.50Q634-470 634-470L634-470Q634-475 633.50-479.50Q633-484 632-488L632-488L632-488Q632-489 632-490Q632-491 632-493L632-493Q632-496 632.50-499.50Q633-503 634-506L634-506L634-505Q634-505 626-500.50Q618-496 614-494L614-494Q611-491 607.50-496Q604-501 599-507L599-507Q595-512 591.50-518Q588-524 586-530L586-530L586-531Q584-536 588.50-538.50Q593-541 593-541L593-541L607-548Q611-549 616-549.50Q621-550 626-550L626-550Q628-550 630-550Q632-550 634-550L634-550L634-550Q642-549 651.50-548Q661-547 661-547L661-547Q661-547 662.50-552.50Q664-558 659-562L659-562Q654-566 647.50-568.50Q641-571 634-572L634-572L634-572Q629-571 634-576Q639-581 644-585L644-585L627-588Q627-588 619-584.50Q611-581 608-579L608-579Q602-578 597.50-575Q593-572 589-568L589-568L589-568Q585-562 587.50-555.50Q590-549 586-547L586-547Q583-545 579-544Q575-543 572-541L572-541L571-541Q569-541 566.50-541Q564-541 562-541L562-541Q559-541 556.50-541Q554-541 552-541L552-541L552-541Q540-541 544-533.50Q548-526 551-522L551-522L539-537L530-557Q530-557 522.50-562Q515-567 511-569L511-569Q506-571 496-576.50Q486-582 486-582L486-582L487-569L505-552L506-551L515-540L495-538L495-550Q481-553 481-556Q481-559 479-560L479-560Q476-563 470-567Q464-571 464-571L464-571Q464-571 454.50-569Q445-567 442-566L442-566Q438-565 436-562.50Q434-560 427-557L427-557Q422-556 418-553Q414-550 411-546L411-546L411-546Q406-539 401.50-533Q397-527 392-522L392-522L392-522Q387-518 380.50-517.50Q374-517 370-517L370-517Q362-519 355.50-520.50Q349-522 342-524L342-524L344-523L344-548Q345-552 345.50-555.50Q346-559 346-563L346-563Q346-564 345.50-565Q345-566 345-567L345-567L345-567L359-569L381-574L387-578L396-590Q394-592 392.50-594.50Q391-597 391-600L391-600Q391-602 391.50-604Q392-606 394-608L394-608L393-608Q396-611 404-612.50Q412-614 416-618L416-618Q420-620 423.50-622Q427-624 431-625L431-625L431-625Q431-625 438-631Q445-637 453-645L453-645Q456-647 460-648.50Q464-650 468-652L468-652L469-652Q476-646 483-640.50Q490-635 498-630L498-630L499-630Q505-632 510.50-634.50Q516-637 521-640L521-640L520-640Q522-644 522.50-648Q523-652 523-657L523-657Q523-657 523-657.50Q523-658 523-658L523-658L523-658Q522-661 518-669Q514-677 514-677L514-677Q514-677 511.50-672.50Q509-668 505-664L505-664Q503-661 501-658Q499-655 498-651L498-651L498-651Q498-651 487-652Q476-653 475-656L475-656Q474-659 472-664Q470-669 469-672L469-672Q468-676 460.50-676Q453-676 446-674L446-674Q439-671 443.50-680.50Q448-690 448-690L448-690Q448-690 453-695.50Q458-701 463-701L463-701Q470-703 476.50-705.50Q483-708 490-711L490-711L488-710Q495-713 503-715Q511-717 519-718L519-718L520-718Q526-718 532-716.50Q538-715 541-715L541-715L564-715L596-718Q596-718 608.50-712Q621-706 614-702L614-702Q618-699 622-696.50Q626-694 629-691L629-691L629-691Q632-688 639-692Q646-696 650-698L650-698Q693-672 728-637L728-637Q762-601 787-558.50Q812-516 825-467L825-467Q839-419 839-366L839-366L839-366ZM119-597L119-597Q119-593 116-589.50Q113-586 119-575L119-575Q127-561 123.50-554Q120-547 120-547L120-547Q120-547 106.50-537.50Q93-528 90-526L90-526Q87-524 81-516Q75-508 81-511L81-511Q87-515 91.50-516Q96-517 90-509L90-509Q84-500 78.50-491Q73-482 67-472L67-472L66-470Q64-464 56-453.50Q48-443 48-436L48-436Q46-429 45-420.50Q44-412 43-403L43-403L43-402Q43-402 43-402Q43-402 43-401L43-401Q43-394 42-387.50Q41-381 38-375L38-375L38-375Q40-438 60.50-495Q81-552 117-599L117-599L116-598Q117-598 117.50-598Q118-598 119-597L119-597L119-597ZM167-654L167-654Q194-679 226-698.50Q258-718 293-731L293-731L295-732Q292-728 288.50-724Q285-720 285-720L285-720Q285-720 277-717.50Q269-715 255-699L255-699Q250-694 245-689Q240-684 235-679L235-679L235-679Q233-674 229.50-670.50Q226-667 222-664L222-664L221-664Q217-661 213-656.50Q209-652 207-648L207-648L206-648L190-642L176-648Q176-648 170-646.50Q164-645 166-649L166-649Q166-651 166.50-652Q167-653 168-654L168-654L167-654ZM363-635L348-620L342-629L348-642L363-636L363-662L377-670L388-654L406-634L394-625L363-620L363-635ZM545-480L545-481Q547-483 553.50-479.50Q560-476 560-476L560-476Q572-474 583.50-471Q595-468 605-464L605-464L604-464Q608-461 614.50-458.50Q621-456 623-452L623-452Q627-448 631-442.50Q635-437 638-431L638-431L638-430Q640-427 644-417.50Q648-408 649-404L649-404Q651-396 653.50-388.50Q656-381 660-375L660-375L660-375Q663-370 677.50-351Q692-332 699-321L699-321L726-325Q725-320 723.50-315.50Q722-311 720-307L720-307L720-307Q718-304 712.50-297Q707-290 703-285L703-285Q699-279 694-273.50Q689-268 684-263L684-263L684-263Q677-257 675.50-252Q674-247 670-242L670-242Q667-238 664.50-233.50Q662-229 660-224L660-224L660-223Q660-223 661.50-207.50Q663-192 664-188L664-188Q665-183 659-174Q653-165 653-165L653-165L640-152L622-128L623-106Q623-106 615.50-100Q608-94 602-90L602-90Q596-86 595-82Q594-78 589-74L589-74Q582-68 573-63.50Q564-59 555-56L555-56L554-56Q549-55 531.50-52.50Q514-50 514-50L514-50L514-63L514-78Q512-85 509.50-91Q507-97 504-102L504-102L505-102Q501-106 500.50-112Q500-118 494-124L494-124Q491-127 488-131.50Q485-136 483-141L483-141L483-142Q483-143 483-144Q483-145 483-146L483-146Q483-149 483-152.50Q483-156 484-160L484-160L484-159Q484-159 487.50-168Q491-177 493-182L493-182Q494-183 494-185Q494-187 494-189L494-189Q494-192 493-195.50Q492-199 490-202L490-202L490-202Q488-208 487-214.50Q486-221 486-227L486-227L486-227Q486-231 479.50-235.50Q473-240 469-244L469-244Q466-247 466-251Q466-255 466-260L466-260Q465-267 464-274.50Q463-282 463-290L463-290L463-290Q464-297 455.50-294.50Q447-292 440-290L440-290Q434-287 429.50-291Q425-295 425-301L425-301Q425-308 415.50-304.50Q406-301 398-297L398-297Q391-294 382.50-291.50Q374-289 365-287L365-287L363-287Q362-286 360.50-285.50Q359-285 357-285L357-285Q354-285 351-286.50Q348-288 345-291L345-291L345-291Q341-294 337-297.50Q333-301 328-304L328-304L327-304Q321-309 316-314Q311-319 306-325L306-325L306-325Q299-333 293.50-342.50Q288-352 284-362L284-362L283-363Q283-366 283-369.50Q283-373 283-376L283-376Q283-379 283-382.50Q283-386 283-389L283-389L283-389Q283-390 283-391Q283-392 283-394L283-394Q283-398 283.50-403Q284-408 285-413L285-413L285-412Q287-419 289.50-425Q292-431 296-436L296-436L295-436Q301-442 307-446.50Q313-451 320-455L320-455L321-455Q324-457 330-463Q336-469 336-473L336-473Q336-478 339.50-480.50Q343-483 345-488L345-488Q347-492 354.50-499.50Q362-507 372-503L372-503Q377-503 381.50-504Q386-505 390-506L390-506L389-506Q396-508 402-510Q408-512 413-515L413-515L412-514Q417-516 422-517Q427-518 433-519L433-519L433-519Q437-517 441-516Q445-515 449-514L449-514L450-514Q453-514 461-515.50Q469-517 469-517L469-517Q471-511 472.50-505Q474-499 475-492L475-492L476-491Q476-488 479-484.50Q482-481 488-479L488-479Q493-477 513-474.50Q533-472 545-480L545-480ZM718-190L718-190Q718-184 717.50-178.50Q717-173 715-167L715-167L715-168Q714-164 712.50-157Q711-150 709-146L709-146Q707-140 703.50-135Q700-130 696-125L696-125L696-125Q692-123 687.50-118Q683-113 679-112L679-112Q676-111 674-117.50Q672-124 673-128L673-128Q676-135 678-141Q680-147 683-152L683-152L682-150Q682-150 683-155.50Q684-161 685-165L685-165Q686-170 695.50-174.50Q705-179 705-179L705-179L717-201Q718-198 718-195.50Q718-193 718-190L718-190L718-190ZM48-279L48-279Q50-278 52.50-276.50Q55-275 57-273L57-273L57-273Q60-270 64-267.50Q68-265 73-263L73-263L73-263Q79-261 82.50-257.50Q86-254 93-251L93-251Q100-248 101-247Q102-246 111-236L111-236Q116-232 119.50-227Q123-222 124-216L124-216L125-216Q127-210 129.50-205Q132-200 135-196L135-196L135-196Q137-193 142.50-190.50Q148-188 152-186L152-186Q155-184 159.50-182.50Q164-181 168-180L168-180L168-180Q172-180 180-173.50Q188-167 194-165L194-165Q200-164 201-156.50Q202-149 202-149L202-149L194-128L188-106L194-88Q191-86 187-84Q183-82 179-81L179-81L179-81Q175-81 172.50-79.50Q170-78 165-79L165-79Q123-118 92.50-168Q62-218 49-276L49-276L48-279Z"/>
</svg>
